<svg id="Capa_1" data-name="Capa 1" xmlns="http://www.w3.org/2000/svg" viewBox="0 0 24 18.26"><title>email-icon</title><path d="M21.57,3.37H3.43A2.93,2.93,0,0,0,.5,6.3V18.7a2.93,2.93,0,0,0,2.93,2.93H21.57A2.93,2.93,0,0,0,24.5,18.7V6.31A2.93,2.93,0,0,0,21.57,3.37ZM23.16,18.7a1.59,1.59,0,0,1-1.59,1.59H3.43A1.59,1.59,0,0,1,1.84,18.7V6.31a1.6,1.6,0,0,1,1.59-1.6H21.57a1.6,1.6,0,0,1,1.59,1.6V18.7Z" transform="translate(-0.5 -3.37)"/><path d="M15.64,12.35l5.87-5.27a.67.67,0,0,0-.9-1l-8.1,7.27-1.58-1.41v0l-.11-.09L4.39,6.08a.67.67,0,1,0-.9,1l5.94,5.31L3.52,17.93a.68.68,0,0,0,0,.95.68.68,0,0,0,1,0l6-5.62,1.63,1.46a.7.7,0,0,0,.45.17.62.62,0,0,0,.44-.18l1.68-1.5,6,5.68a.67.67,0,0,0,.46.18.67.67,0,0,0,.46-1.16Z" transform="translate(-0.5 -3.37)"/></svg>