<svg id="Layer_1" data-name="Layer 1" xmlns="http://www.w3.org/2000/svg" viewBox="0 0 24 21.09"><title>bio-icon</title><path d="M24.3,5.27H17.92V4.56a2.11,2.11,0,0,0-2.11-2.11H10.19A2.11,2.11,0,0,0,8.08,4.56v.71H1.7A.7.7,0,0,0,1,6V21.44a2.12,2.12,0,0,0,2.11,2.11H22.89A2.12,2.12,0,0,0,25,21.44V6h0A.68.68,0,0,0,24.3,5.27ZM9.48,4.56a.7.7,0,0,1,.71-.7h5.62a.7.7,0,0,1,.71.7v.71h-7ZM23.32,6.67l-2.18,6.55a.71.71,0,0,1-.67.48H16.52V13a.7.7,0,0,0-.71-.7H10.19a.7.7,0,0,0-.71.7v.7H5.53a.71.71,0,0,1-.67-.48L2.68,6.67Zm-8.21,7v1.41H10.89V13.7Zm8.48,7.74a.7.7,0,0,1-.7.7H3.11a.7.7,0,0,1-.7-.7V10.3l1.12,3.37a2.11,2.11,0,0,0,2,1.44h4v.7a.71.71,0,0,0,.71.71h5.62a.71.71,0,0,0,.71-.71v-.7h3.95a2.11,2.11,0,0,0,2-1.44l1.12-3.37Z" transform="translate(-1 -2.45)"/></svg>